<?xml version="1.0" encoding="UTF-8"?>
<svg id="Layer_1" data-name="Layer 1" xmlns="http://www.w3.org/2000/svg" viewBox="0 0 32 32">
  <path d="M23,3h-1c0-1.103-.897-2-2-2H12c-1.103,0-2,.897-2,2h-1c-2.757,0-5,2.243-5,5V26c0,2.757,2.243,5,5,5h14c2.757,0,5-2.243,5-5V8c0-2.757-2.243-5-5-5Zm-11,0h7.999v2s-7.999,0-7.999,0V3Zm14,23c0,1.654-1.346,3-3,3H9c-1.654,0-3-1.346-3-3V8c0-1.654,1.346-3,3-3h1c0,1.103,.897,2,2,2h8c1.103,0,2-.897,2-2h1c1.654,0,3,1.346,3,3V26Z"/>
  <path d="M13.293,9.793l-1.959,1.959-.626-.626c-.391-.391-1.024-.391-1.414,0-.391,.391-.391,1.024,0,1.414l1.333,1.333c.195,.195,.451,.293,.707,.293s.512-.098,.707-.293l2.667-2.667c.391-.391,.391-1.023,0-1.414s-1.023-.391-1.414,0Z"/>
  <path d="M22,11h-5c-.552,0-1,.448-1,1s.448,1,1,1h5c.552,0,1-.448,1-1s-.448-1-1-1Z"/>
  <path d="M13.293,15.793l-1.959,1.959-.626-.626c-.391-.391-1.024-.391-1.414,0-.391,.391-.391,1.024,0,1.414l1.333,1.333c.195,.195,.451,.293,.707,.293s.512-.098,.707-.293l2.667-2.667c.391-.391,.391-1.023,0-1.414s-1.023-.391-1.414,0Z"/>
  <path d="M22,17h-5c-.552,0-1,.448-1,1s.448,1,1,1h5c.552,0,1-.448,1-1s-.448-1-1-1Z"/>
  <path d="M13.293,21.793l-1.959,1.959-.626-.626c-.391-.391-1.024-.391-1.414,0-.391,.391-.391,1.024,0,1.414l1.333,1.333c.195,.195,.451,.293,.707,.293s.512-.098,.707-.293l2.667-2.667c.391-.391,.391-1.023,0-1.414s-1.023-.391-1.414,0Z"/>
  <path d="M22,23h-5c-.552,0-1,.448-1,1s.448,1,1,1h5c.552,0,1-.448,1-1s-.448-1-1-1Z"/>
</svg>